<?xml version="1.0" encoding="UTF-8"?><svg id="Ebene_1" xmlns="http://www.w3.org/2000/svg" viewBox="0 0 437.3491 550.8329"><g id="Generatives_Objekt"><path d="M331.1083,328.5371c-27.617,43.5943-70.2345,76.1403-114.8602,99.3956-19.5363-10.3438-38.2912-22.0151-55.6855-35.6065-43.1522-33.7177-70.7082-76.1562-87.6377-125.9205-9.543-27.7725-15.4077-56.5055-19.0169-85.7766-4.0609-32.9338-6.1339-65.8914-7.0744-99.825,26.9774-4.1285,52.6503-10.0397,78.2869-17.1852,30.6853-8.5527,60.5871-19.0045,89.7154-31.5845,1.6799-.4475,2.6522-.1642,4.1012.7769,37.4842,15.8076,76.0986,28.476,115.8834,37.6279,16.5725,3.8123,32.9229,7.4464,49.9835,10.0476-.1902,18.4854-1.4013,36.4647-2.6655,54.8944-1.8168,26.4868-4.6701,52.391-9.0969,78.2853-7.7314,40.729-19.3698,79.2535-41.9332,114.8705ZM214.4641,143.292l-.0096,18.5924c-1.0975,5.5556-4.4675,10.0952-10.0294,11.6187l-77.1141.0658c-.4945.0004-1.284.5291-1.6283.4423-.3969-.1-.7304.9507-.7331,1.4814l.053,29.8425-22.1372-.0014c-1.064,0-2.9189.5503-2.9137,1.9293l.0825,21.9586c.0062,1.6592,1.4967,2.2922,2.841,2.297l22.1704.0793-.1156,34.8704c.2555.8961-.1672,3.5192,1.2232,3.8556l73.7871.2128c8.2706-.8504,14.458,5.4146,14.4635,13.4998l.0751,15.4209-36.5361.0471c-.9901.0013-3.2339,1.2476-3.2338,2.6774l.0039,53.1674c.2448,1.1462,2.1626,2.6395,3.1267,2.6408l75.0941.104c1.7617.0024,5.0215-.5012,5.0273-3.0671l.1157-51.7958c.0033-1.4961-.9749-3.678-2.8646-3.6873l-36.813-.1805.1095-17.7611c.8272-6.5429,5.7239-11.1292,12.5807-11.1286l73.9599.0056c2.0447.0002,2.7351-1.0319,2.7334-3.0475l-.1099-35.9362,23.3577-.0302,1.9145-1.8799-.0611-21.876c-.002-.6991-.9724-2.1616-1.7133-2.3406l-23.2266-.0366-.1839-29.5227c.0011-.82-.3292-1.5416-.7549-1.7782-.6274-.3486-1.6345-.2551-2.2968-.266l-10.988-.182-64.958-.0681c-6.088-1.0501-9.5679-5.9343-10.3383-11.8553l-.3554-18.354,47.5334-.1452c1.0971-.0034,1.9066-1.6765,2.3933-2.28.5852-6.2078.5539-12.21.4095-18.4375l-.0932-25.8344c-.0052-1.4364-.487-4.5265-2.8918-4.5262l-97.6905.0142c-1.3241.0002-2.8666,1.8708-2.8689,2.8667l-.102,43.5368c-.0036,1.526.5986,4.5945,2.8141,4.6034l46.8916.1882ZM296.886,334.4506c1.0984-.8293,2.1256-2.2212,2.1216-3.0463l-.1427-29.2342-9.6665-10.3554-16.7992.0536c-1.4921.0048-5.0489-.5466-5.0292,2.4637l.2466,37.8062c.0104,1.5965,1.8606,2.5037,2.9065,2.4964l26.3629-.184Z" fill="#559dba"/><path d="M125.0025,205.3351l3.1792-.0059,23.692.049c.8671.2953,1.4271,1.5095,2.015,1.9404l.0042,9.8024c.0005,1.1816-.0792,2.456-.0636,3.7029l.0956,7.6111c.0122.9691-.7541,2.5563-1.8287,2.9533l-23.75.0805-3.3007.1292-22.1704-.0793c-1.3443-.0048-2.8348-.6378-2.841-2.297l-.0825-21.9586c-.0052-1.379,1.8497-1.9293,2.9137-1.9293l22.1372.0014Z" fill="#4a6582"/><path d="M304.3648,205.3602l3.5792-.028,23.2266.0366c.741.179,1.7114,1.6415,1.7133,2.3406l.0611,21.876-1.9145,1.8799-23.3577.0302-3.1623-.0114-22.3136.0263c-1.4906.0018-2.9936-.7281-3.0267-2.3965l-.1695-8.5462.028-3.5776.1256-9.2941c.0167-1.2375.827-1.5673,1.871-2.2792l23.3395-.0565Z" fill="#4a6582"/><path d="M128.3462,231.4687l-.0645,35.4504,74.5534.2437c5.9924.0196,10.5422,3.8846,13.4466,9.1091,3.2756-6.2092,9.0711-9.3859,16.1097-9.3838l71.9911.0218.1279-35.4259,3.1623.0114.1099,35.9362c.0016,2.0156-.6887,3.0476-2.7334,3.0475l-73.9599-.0056c-6.8568-.0005-11.7535,4.5858-12.5807,11.1286l-.1095,17.7611-3.9201.0941-.0751-15.4209c-.0055-8.0852-6.1929-14.3502-14.4635-13.4998l-73.7871-.2128c-1.3905-.3364-.9678-2.9595-1.2232-3.8556l.1156-34.8704,3.3007-.1292Z" fill="#69c4cf"/><path d="M218.0687,143.306l.3554,18.354c.7704,5.9209,4.2502,10.8052,10.3383,11.8553l64.958.0681,10.988.182c.6623.011,1.6695-.0826,2.2968.266.4257.2366.756.9581.7549,1.7782l.1839,29.5227-3.5792.028.0575-28.2559-74.2915-.1367c-6.261-.0115-11.2997-4.0432-13.7024-9.3074-3.1953,4.566-7.1585,9.2342-12.9494,9.2499l-75.1905.2034-.1069,28.2156-3.1792.0059-.053-29.8425c.0027-.5307.3362-1.5814.7331-1.4814.3443.0868,1.1338-.4419,1.6283-.4423l77.1141-.0658c5.5619-1.5235,8.9319-6.063,10.0294-11.6187l.0096-18.5924,3.6046.0141Z" fill="#6cc1cf"/><path d="M296.886,334.4506l-26.3629.184c-1.0459.0073-2.8961-.8999-2.9065-2.4964l-.2466-37.8062c-.0196-3.0103,3.5371-2.4589,5.0292-2.4637l16.7992-.0536,9.6665,10.3554.1427,29.2342c.004.8251-1.0232,2.2169-2.1216,3.0463ZM296.5636,302.9659l-5.2322-5.0717c-1.4219-1.3783-1.9033-3.8653-3.8137-3.143l.187,8.451c3.4105.3998,5.6029.5491,8.8589-.2364ZM292.0804,314.0171c1.0415-.0079,1.3901-1.1571,1.5091-1.6125.0762-.2912-.3346-.8448-.7223-1.6994l-20.8808.0661c-.1757,1.7257-.3486,3.4016,1.1568,3.3902l18.9372-.1444ZM273.8912,320.9073l18.9347-.3593c.8055-.0153.8246-2.6418.2642-2.656l-16.5905-.421c-1.6618-.0422-3.311.7336-4.6556-.0411-.0684,1.833-.2203,2.1865.1779,2.8547.2711.4549.8069.6429,1.8692.6227ZM288.454,324.3314l-15.1925-.0084c-.5809-.0003-1.8077,1.686-1.359,2.0948.2453.2234-.1449,1.079.4813,1.0789l15.6777-.0033c.8259-.0002,1.7928-.4949,2.0162-.9973.2256-.5072-.4392-2.164-1.6237-2.1647Z" fill="#506c8b"/><path d="M168.6831,220.7592l-.0057,16.6279c-.0008,2.1971.7235,4.8683,3.4647,4.866l88.7761-.074c2.8599-.0024,3.2266-3.3228,3.2135-5.1884l-.1138-16.1402,14.9828-.2829.1695,8.5462c.0331,1.6683,1.5361,2.3982,3.0267,2.3965l22.3136-.0263-.1279,35.4259-71.9911-.0218c-7.0386-.0021-12.8341,3.1746-16.1097,9.3838-2.9044-5.2245-7.4542-9.0895-13.4466-9.1091l-74.5534-.2437.0645-35.4504,23.75-.0805c1.0746-.397,1.8408-1.9842,1.8287-2.9533l-.0956-7.6111c5.0325-.2659,9.9492-.3599,14.8537-.0646Z" fill="#559dba"/><path d="M304.3648,205.3602l-23.3395.0565c-1.044.7119-1.8543,1.0417-1.871,2.2792l-.1256,9.2941-14.8796.1972-.4305-13.508c-.0644-2.0211-2.8404-2.1351-4.5109-2.1351l-86.149-.0033c-2.16,0-4.2024.6265-4.2251,3.0588l-.1154,12.3781-14.8252.1432-.0042-9.8024c-.5879-.431-1.1479-1.6451-2.015-1.9404l-23.692-.049.1069-28.2156,75.1905-.2034c5.7908-.0157,9.754-4.6839,12.9494-9.2499,2.4027,5.2642,7.4414,9.2959,13.7024,9.3074l74.2915.1367-.0575,28.2559Z" fill="#559dba"/><path d="M168.7182,216.9777l-.0351,3.7815c-4.9045-.2953-9.8212-.2013-14.8537.0646-.0157-1.2469.0641-2.5213.0636-3.7029l14.8252-.1432Z" fill="#6ac1cd"/><polygon points="279.0286 216.9901 279.0006 220.5676 264.0178 220.8505 264.149 217.1872 279.0286 216.9901" fill="#6cc1cf"/><path d="M264.149,217.1872l-.1312,3.6633.1138,16.1402c.0132,1.8655-.3536,5.186-3.2135,5.1884l-88.7761.074c-2.7412.0023-3.4654-2.6689-3.4647-4.866l.0057-16.6279.0351-3.7815.1154-12.3781c.0227-2.4323,2.065-3.0589,4.2251-3.0588l86.149.0033c1.6705,0,4.4465.114,4.5109,2.1351l.4305,13.508Z" fill="#4a6582"/><path d="M58.7066,282.978c22.5287,58.8482,59.2651,103.6592,111.3682,139.2671l37.7258,23.9023c2.2366.5914,5.3537,1.5572,7.6009,1.3569,2.3792-.212,5.614-.3878,7.605-1.6148l24.8312-15.3023c19.3828-11.9447,36.7876-25.6002,53.4688-41.2736,53.7118-50.4667,79.2234-114.2239,91.5386-185.3789,3.2217-18.6143,5.3563-36.5621,6.6664-55.3257l4.6103-66.0256,2.0963-20.0709-22.3069-2.9002c-53.8388-9.4451-105.7601-25.2318-156.2115-46.2724-8.1868-3.4143-16.7571-3.3988-24.9457.0085-50.721,21.1055-102.9811,37.041-157.0824,46.4307l-21.2037,2.8178c-.084,5.2138,1.107,10.1575,1.4836,15.4769l4.9932,70.5376c1.2639,17.8543,3.1717,34.9002,6.2002,52.6266,4.7728,27.9363,11.4114,55.226,21.5616,81.7399Z" fill="none" stroke="#4a6682" stroke-linecap="round" stroke-linejoin="round" stroke-width="21.5723"/><path d="M182.3472,211.4013l-1.6343,9.4414h-1.8999l1.6406-9.4414h1.8936Z" fill="#f8f8f7"/><path d="M185.0708,215.4277l-.9404,5.415h-1.8286l1.2192-7.0166h1.7119l-.1621,1.6016ZM184.5322,217.0878l-.4536.0127c.0474-.4189.1426-.834.2852-1.2441.1426-.4111.3384-.7822.5869-1.1123.2485-.3311.5532-.5908.9146-.7812.3608-.1904.7812-.2812,1.2607-.2725.3892.0127.7104.0938.9634.2432.2524.1494.4473.3486.5835.5996s.2246.5342.2656.8496.0444.6445.0098.9854l-.752,4.4746h-1.8354l.7588-4.4941c.0259-.2285.0195-.4316-.0195-.6094-.0386-.1768-.124-.3174-.2559-.4219-.1318-.1035-.3232-.1572-.5737-.1621-.2769-.0078-.5156.0439-.7168.1562s-.3706.2637-.5088.4541c-.1387.1895-.249.3994-.3311.6289-.082.2285-.1426.46-.1816.6934Z" fill="#f8f8f7"/><path d="M194.1289,213.8261l-.2334,1.3232h-3.9746l.2334-1.3232h3.9746ZM191.438,212.0952h1.8223l-1.1416,6.646c-.0171.1514-.0161.2803.0034.3857.0195.1064.0684.1875.146.2432.0776.0566.1987.0889.3633.0977.0903.0049.1812.001.272-.0098s.1841-.0225.2788-.0352l-.1294,1.3936c-.1729.0518-.3472.0898-.522.1133-.1753.0244-.3535.0361-.5352.0361-.415-.0088-.7554-.0996-1.021-.2725-.2661-.1729-.4565-.4121-.5708-.7168-.1147-.3047-.1523-.6582-.1138-1.0596l1.1479-6.8218Z" fill="#f8f8f7"/><path d="M197.2153,220.9726c-.4795-.0088-.9121-.1006-1.2969-.2764-.3848-.1748-.7056-.416-.9629-.7227s-.4463-.6631-.5674-1.0703c-.1211-.4062-.1641-.8428-.1294-1.3096l.0259-.2656c.0518-.4883.1704-.9531.3564-1.3945.186-.4404.4346-.8311.7456-1.1699.3115-.3398.6802-.6055,1.106-.7979s.8999-.2822,1.4233-.2695c.4883.0088.9053.1084,1.2515.2988.3457.1904.6245.4453.8364.7646.2114.3203.3564.6846.4341,1.0928.0781.4092.0933.8359.0454,1.2812l-.1035.7773h-5.4209l.2012-1.2441,3.5791.0059.0327-.1621c.0342-.2373.0234-.459-.0327-.6641-.0562-.2061-.1621-.3711-.3179-.4961-.1553-.126-.3628-.1924-.6221-.2012-.2983-.0088-.5493.0537-.7524.1875-.2031.1348-.3696.3115-.499.5322-.1299.2207-.2295.459-.2983.7168-.0693.2568-.1191.5039-.1494.7422l-.0259.2588c-.0215.2295-.0151.458.0195.6846s.1025.4316.2041.6123c.1016.1816.2422.3291.4214.4414.1797.1123.4053.1729.6777.1816.3457.0088.6646-.0596.9565-.2041.292-.1455.5542-.3389.7881-.5811l.8169.9863c-.1948.2939-.4424.5352-.7427.7227-.3003.1885-.6235.3262-.9692.415-.3462.0889-.6895.1309-1.0312.127Z" fill="#f8f8f7"/><path d="M203.6353,215.454l-.9336,5.3887h-1.8223l1.2192-7.0166h1.7119l-.1753,1.6279ZM205.9243,213.7685l-.2271,1.7441c-.1035-.0176-.2085-.0332-.3145-.0459s-.2129-.0215-.3208-.0254c-.251-.0049-.478.0273-.6812.0967s-.3794.1699-.5283.3018-.2744.293-.376.4834-.1782.4043-.2305.6416l-.3564-.1162c.043-.333.1157-.6846.2173-1.0537.1016-.3701.2441-.7158.4277-1.0381s.4194-.583.707-.7842c.2871-.2012.6387-.2998,1.0537-.2949.1079,0,.2129.0078.3145.0254s.2065.0391.3145.0654Z" fill="#f8f8f7"/><path d="M208.7642,220.9726c-.4795-.0088-.9121-.1006-1.2969-.2764-.3848-.1748-.7056-.416-.9629-.7227s-.4463-.6631-.5674-1.0703c-.1211-.4062-.1641-.8428-.1294-1.3096l.0259-.2656c.0518-.4883.1704-.9531.3564-1.3945.186-.4404.4346-.8311.7456-1.1699.3115-.3398.6802-.6055,1.106-.7979s.8999-.2822,1.4233-.2695c.4883.0088.9053.1084,1.2515.2988.3457.1904.6245.4453.8364.7646.2114.3203.3564.6846.4341,1.0928.0781.4092.0933.8359.0454,1.2812l-.1035.7773h-5.4209l.2012-1.2441,3.5791.0059.0327-.1621c.0342-.2373.0234-.459-.0327-.6641-.0562-.2061-.1621-.3711-.3179-.4961-.1553-.126-.3628-.1924-.6221-.2012-.2983-.0088-.5493.0537-.7524.1875-.2031.1348-.3696.3115-.499.5322-.1299.2207-.2295.459-.2983.7168-.0693.2568-.1191.5039-.1494.7422l-.0259.2588c-.0215.2295-.0151.458.0195.6846s.1025.4316.2041.6123c.1016.1816.2422.3291.4214.4414.1797.1123.4053.1729.6777.1816.3457.0088.6646-.0596.9565-.2041.292-.1455.5542-.3389.7881-.5811l.8169.9863c-.1948.2939-.4424.5352-.7427.7227-.3003.1885-.6235.3262-.9692.415-.3462.0889-.6895.1309-1.0312.127Z" fill="#f8f8f7"/><path d="M215.1899,215.3828l-.9399,5.46h-1.8286l1.2188-7.0166h1.7056l-.1558,1.5566ZM214.665,217.0878l-.4863.0068c.0518-.4238.1479-.8408.2886-1.252.1401-.4102.335-.7803.5835-1.1084s.5542-.5879.9175-.7783.7866-.2783,1.271-.2656c.3584.0088.6572.082.8955.2207.2363.1377.4258.3213.5625.5508.1387.2295.2305.4902.2773.7842.0449.2949.0527.5996.0215.915l-.7773,4.6816h-1.8228l.7466-4.4805c.0254-.2168.0234-.415-.0078-.5967-.0293-.1816-.1055-.3281-.2266-.4385-.1206-.1094-.3047-.1689-.5508-.1777-.2681-.0088-.5015.0439-.7002.1592-.1992.1143-.3643.2666-.4961.457-.1323.1895-.2393.4004-.3213.6318s-.1406.4619-.1748.6904ZM218.7559,216.874l-.6543.0908c.0469-.415.1426-.8184.2852-1.209.1426-.3916.3379-.7451.584-1.0605s.5469-.5645.8999-.7461c.3555-.1807.7656-.2676,1.2324-.2588.3848.0127.7051.0928.9609.2402.2539.1465.4512.3457.5918.5957.1406.251.2324.5332.2754.8467.0449.3135.0488.6426.0137.9893l-.752,4.4805h-1.8281l.752-4.4873c.0254-.2158.0234-.4141-.0059-.5938-.0312-.1787-.1055-.3242-.2246-.4346-.1191-.1094-.3008-.167-.5488-.1719-.2461-.0078-.4609.0361-.6445.1338-.1831.0967-.3374.2285-.4624.3955-.127.166-.2266.3535-.3047.5605s-.1348.417-.1699.6289Z" fill="#f8f8f7"/><path d="M226.8813,220.9726c-.4805-.0088-.9121-.1006-1.2969-.2764-.3848-.1748-.7061-.416-.9629-.7227-.2578-.3066-.4463-.6631-.5674-1.0703-.1211-.4062-.165-.8428-.1299-1.3096l.0254-.2656c.0527-.4883.1709-.9531.3574-1.3945.1855-.4404.4336-.8311.7451-1.1699.3115-.3398.6797-.6055,1.1055-.7979s.9004-.2822,1.4238-.2695c.4883.0088.9053.1084,1.251.2988s.625.4453.8369.7646c.2119.3203.3564.6846.4346,1.0928.0771.4092.0928.8359.0449,1.2812l-.1035.7773h-5.4209l.2012-1.2441,3.5791.0059.0322-.1621c.0352-.2373.0244-.459-.0322-.6641-.0566-.2061-.1621-.3711-.3174-.4961-.1562-.126-.3633-.1924-.623-.2012-.2979-.0088-.5488.0537-.752.1875-.2031.1348-.3691.3115-.499.5322s-.2295.459-.2988.7168c-.0693.2568-.1182.5039-.1484.7422l-.0264.2588c-.0215.2295-.0156.458.0195.6846.0342.2266.1025.4316.2041.6123.1016.1816.2422.3291.4219.4414.1787.1123.4053.1729.6777.1816.3457.0088.6641-.0596.9561-.2041.292-.1455.5547-.3389.7881-.5811l.8164.9863c-.1943.2939-.4414.5352-.7422.7227-.3008.1885-.623.3262-.9697.415-.3457.0889-.6895.1309-1.0303.127Z" fill="#f8f8f7"/><path d="M230.856,217.4706l.0137-.1426c.0557-.4277.1562-.8604.3008-1.2969.1455-.4365.3438-.834.5967-1.1934.2529-.3584.5654-.6436.9375-.8555.3711-.2119.8125-.3096,1.3223-.292.4365.0176.7979.1396,1.083.3662s.5068.5186.665.875c.1572.3574.2656.7354.3242,1.1348.0576.4004.0811.7793.0674,1.1387l-.0322.3105c-.0693.3848-.1846.7822-.3467,1.1904s-.3721.7871-.6289,1.1348c-.2578.3477-.5625.6279-.9141.8398-.3525.2119-.7539.3105-1.2031.2979-.4717-.0127-.8574-.1289-1.1572-.3467-.3008-.2188-.5332-.5-.6973-.8467-.1641-.3457-.2705-.7217-.3174-1.1279-.0479-.4062-.0527-.8018-.0137-1.1865ZM232.7046,217.3212l-.0137.1367c-.0166.1855-.0264.3945-.0283.625-.0029.2314.0215.4541.0713.668.0488.2139.1426.3916.2783.5322.1367.1406.334.2168.5938.2305.3281.0127.6113-.0645.8486-.2305.2383-.167.4297-.3818.5742-.6455s.2412-.54.2891-.8301l.123-.8623c.0215-.1982.0215-.3994,0-.6025s-.0703-.3936-.1465-.5713c-.0752-.1768-.1875-.3213-.3369-.4346-.1494-.1123-.3428-.1699-.5801-.1748-.29-.0127-.5352.0488-.7363.1846-.2012.1367-.3643.3135-.4893.5322-.126.2178-.2236.4551-.2949.71s-.1221.499-.1523.7324ZM234.8511,219.2079l1.4395-8.3252h1.835l-1.7256,9.96h-1.6396l.0908-1.6348Z" fill="#f8f8f7"/><path d="M240.9321,213.8261l-1.2119,7.0166h-1.8291l1.2188-7.0166h1.8223ZM239.311,212.0307c-.0088-.2939.0879-.5298.2891-.707s.4443-.2681.7295-.2725c.2725-.0039.5098.0771.7129.2432.2031.1665.3047.3901.3047.6714.0088.2939-.0889.5293-.292.7065s-.4453.2681-.7256.2725c-.2725.0044-.5088-.0757-.71-.2397-.2012-.1646-.3037-.3892-.3086-.6743Z" fill="#f8f8f7"/><path d="M245.8735,216.5693l-.1748,1.0566-.9268-.0059c-.1865.0039-.3711.0293-.5547.0742-.1836.0459-.3535.1143-.5088.208-.1562.0928-.2852.2129-.3857.3594-.1025.1475-.166.3262-.1914.5381-.0225.1514-.0068.2861.0449.4053s.1328.2129.2432.2822.2432.1064.3984.1104c.2207.0039.4375-.0381.6484-.127.2119-.0879.3965-.2148.5518-.3789s.2637-.3545.3242-.5703l.3887.8105c-.1035.2422-.2344.4648-.3916.668-.1582.2031-.3389.3789-.542.5283-.2031.1484-.4258.2637-.668.3438-.2422.0791-.501.1172-.7783.1133-.3848-.0088-.7383-.1006-1.0596-.2754-.3223-.1758-.5771-.415-.7656-.7197-.1875-.3047-.2734-.6611-.2559-1.0674.0176-.458.1318-.8398.3438-1.1445s.4854-.5449.8203-.7227c.335-.1768.7002-.3037,1.0957-.3789.3955-.0762.7881-.1143,1.1768-.1143l1.167.0068ZM245.1733,219.2607l.4932-3.1455c.0215-.1904.0127-.3672-.0264-.5312s-.1172-.2949-.2363-.3926-.2861-.1504-.5029-.1592c-.1943-.0039-.3682.0293-.5215.1006s-.2803.1729-.3799.3047c-.0986.1318-.168.2891-.207.4707l-1.8291.0127c.0225-.3887.1309-.7256.3281-1.0088.1963-.2822.4463-.5146.749-.6963.3018-.1816.6318-.3154.9883-.4023.3564-.0859.7061-.125,1.0479-.1172.4883.0088.9238.1104,1.3066.3057.3818.1943.6758.4717.8818.833.2051.3604.2812.7988.2295,1.3125l-.4863,3.0088c-.0381.251-.0693.5137-.0908.7881s.0176.5352.1172.7812l-.0127.1172-1.79.0059c-.082-.2549-.1221-.5176-.1201-.7871.002-.2705.0225-.5371.0615-.8008Z" fill="#f8f8f7"/><path d="M252.6626,213.8261l-.2334,1.3232h-3.9746l.2334-1.3232h3.9746ZM249.9722,212.0952h1.8213l-1.1406,6.646c-.0176.1514-.0166.2803.0029.3857.0195.1064.0684.1875.1455.2432.0781.0566.1992.0889.3633.0977.0908.0049.1816.001.2725-.0098s.1836-.0225.2793-.0352l-.1299,1.3936c-.1729.0518-.3467.0898-.5225.1133-.1748.0244-.3535.0361-.5342.0361-.415-.0088-.7559-.0996-1.0215-.2725s-.4561-.4121-.5713-.7168c-.1143-.3047-.1523-.6582-.1133-1.0596l1.1484-6.8218Z" fill="#f8f8f7"/><path d="M255.7495,220.9726c-.4805-.0088-.9121-.1006-1.2969-.2764-.3848-.1748-.7061-.416-.9629-.7227-.2578-.3066-.4463-.6631-.5674-1.0703-.1211-.4062-.165-.8428-.1299-1.3096l.0254-.2656c.0527-.4883.1709-.9531.3574-1.3945.1855-.4404.4336-.8311.7451-1.1699.3115-.3398.6797-.6055,1.1055-.7979s.9004-.2822,1.4238-.2695c.4883.0088.9053.1084,1.251.2988s.625.4453.8369.7646c.2119.3203.3564.6846.4346,1.0928.0771.4092.0928.8359.0449,1.2812l-.1035.7773h-5.4209l.2012-1.2441,3.5791.0059.0322-.1621c.0352-.2373.0244-.459-.0322-.6641-.0566-.2061-.1621-.3711-.3174-.4961-.1562-.126-.3633-.1924-.623-.2012-.2979-.0088-.5488.0537-.752.1875-.2031.1348-.3691.3115-.499.5322s-.2295.459-.2988.7168c-.0693.2568-.1182.5039-.1484.7422l-.0264.2588c-.0215.2295-.0156.458.0195.6846.0342.2266.1025.4316.2041.6123.1016.1816.2422.3291.4219.4414.1787.1123.4053.1729.6777.1816.3457.0088.6641-.0596.9561-.2041.292-.1455.5547-.3389.7881-.5811l.8164.9863c-.1943.2939-.4414.5352-.7422.7227-.3008.1885-.623.3262-.9697.415-.3457.0889-.6895.1309-1.0303.127Z" fill="#f8f8f7"/><path d="M209.7598,225.9218l-1.6069,9.248h-1.8037l-2.5596-6.2695-1.0859,6.2695h-1.8613l1.6006-9.248h1.8101l2.5664,6.2754,1.0859-6.2754h1.8545Z" fill="#fff"/><path d="M210.0024,231.8417l.019-.1338c.0513-.4863.1685-.9453.3525-1.375.1846-.4297.4297-.8086.7368-1.1367s.6689-.585,1.0864-.7686c.417-.1846.8857-.2705,1.4067-.2578.4956.0088.9229.1084,1.2832.2988.3599.1904.6548.4473.8857.7686.231.3223.394.6904.4893,1.1055s.1216.8535.0791,1.3145l-.0127.1396c-.0547.4834-.1768.9375-.3652,1.3623-.1885.4258-.436.8008-.7427,1.125-.3071.3232-.6704.5771-1.0894.7588-.4194.1816-.8853.2666-1.3975.2539-.4868-.0088-.9126-.1064-1.2769-.2949s-.6606-.4424-.8892-.7627c-.2285-.3193-.3896-.6846-.4824-1.0957-.0933-.4102-.1211-.8447-.083-1.3018ZM211.8066,231.7079l-.0127.1396c-.0215.2041-.0278.4209-.019.6514.0083.2305.0454.4502.1108.6572.0659.208.1748.377.3271.5088.1523.1309.3623.2012.6289.209.2837.0088.5273-.0488.7305-.1709.2031-.123.3706-.2891.502-.499.1309-.21.2349-.4385.311-.6855.0762-.248.127-.4902.1523-.7275l.0127-.1338c.0171-.2031.0225-.4219.0161-.6572s-.0435-.457-.1113-.667-.1777-.3818-.3301-.5176c-.1528-.1357-.3623-.208-.6289-.2158-.2837-.0127-.5273.0449-.7305.1748-.2031.1289-.3706.2998-.502.5107-.1313.2119-.2339.4434-.3081.6924-.0737.25-.1235.4941-.1489.7305Z" fill="#fff"/><path d="M217.168,231.8671l.0127-.1396c.0557-.4189.1533-.8428.2959-1.2705.1416-.4277.3359-.8174.584-1.1689s.5537-.6309.918-.8379c.3643-.208.7954-.3027,1.2954-.2861.4277.0166.7812.1367,1.0605.3584.2793.2227.4961.5088.6514.8574.1543.3496.2598.7207.3174,1.1123.0566.3916.0791.7627.0664,1.1143l-.0322.3047c-.0674.377-.1807.7656-.3389,1.166-.1592.4004-.3643.7705-.6162,1.1113s-.5508.6152-.8955.8223c-.3457.208-.7383.3057-1.1782.293-.4619-.0127-.8398-.126-1.1338-.3398s-.5215-.4902-.6826-.8291-.2646-.707-.3115-1.1055c-.0469-.3975-.0508-.7852-.0127-1.1621ZM218.9785,231.7206l-.0127.1338c-.0176.1816-.0264.3867-.0283.6133-.0029.2266.0205.4443.0693.6533.0488.21.1396.3838.2734.5215.1328.1377.3271.2129.5806.2256.3213.0127.5986-.0625.832-.2256.2324-.1631.4199-.374.5625-.6318.1416-.2588.2354-.5293.2822-.8135l.1211-.8447c.0205-.1943.0205-.3916,0-.5908-.0215-.1992-.0693-.3848-.1436-.5586s-.1836-.3154-.3301-.4258-.3359-.167-.5684-.1719c-.2842-.0127-.5244.0479-.7207.1816-.1973.1328-.3569.3066-.479.5205-.123.2139-.2197.4463-.2891.6953-.0703.25-.1201.4893-.1494.7178ZM221.0806,233.5693l1.4102-8.1553h1.7969l-1.6895,9.7559h-1.6064l.0889-1.6006Z" fill="#fff"/><path d="M227.2427,235.2968c-.4697-.0088-.8936-.0986-1.2705-.2695-.377-.1719-.6914-.4082-.9434-.709-.252-.2998-.4365-.6494-.5557-1.0479-.1182-.3975-.1611-.8252-.127-1.2832l.0254-.2598c.0508-.4785.167-.9336.3496-1.3662.1816-.4316.4258-.8135.7305-1.1465.3047-.332.666-.5928,1.083-.7812s.8818-.2764,1.3936-.2637c.4785.0088.8877.1064,1.2266.293.3389.1855.6113.4355.8193.749.207.3135.3486.6699.4258,1.0703.0762.4004.0908.8184.0439,1.2549l-.1016.7617h-5.3096l.1963-1.2197,3.5059.0068.0322-.1592c.0342-.2324.0234-.4492-.0322-.6504-.0547-.2012-.1582-.3633-.3105-.4863s-.3555-.1885-.6104-.1973c-.292-.0078-.5371.0527-.7363.1846-.1992.1309-.3623.3047-.4893.5205-.127.2168-.2246.4502-.292.7021s-.1162.4941-.1465.7275l-.0254.2539c-.0205.2246-.0146.4482.0195.6699.0342.2227.1006.4229.2002.6006s.2373.3213.4121.4316c.1758.1104.3975.1699.6641.1777.3389.0088.6514-.0576.9375-.2002.2852-.1416.543-.3311.7715-.5684l.7998.9658c-.1904.2881-.4326.5234-.7266.708-.2949.1846-.6113.3193-.9502.4062s-.6748.1279-1.0098.124Z" fill="#fff"/><path d="M234.8657,233.2324c.0342-.2031-.0166-.3604-.1523-.4727s-.3018-.1982-.499-.2578c-.1963-.0586-.3672-.1055-.5107-.1396-.2539-.0674-.5098-.1533-.7656-.2568s-.4883-.2344-.6953-.3906c-.208-.1572-.373-.3486-.4951-.5752-.123-.2266-.1787-.4941-.166-.8037.0127-.3682.1074-.6885.2832-.9619s.4033-.5.6826-.6797.584-.3145.915-.4033c.3301-.0889.6582-.1289.9844-.1211.457.0049.8818.0889,1.2734.2539.3916.166.709.4111.9521.7373.2441.3262.3652.7324.3652,1.2197l-1.7715-.0068c.0039-.1855-.0254-.3486-.0889-.4893-.0635-.1396-.1611-.2471-.292-.3232-.1318-.0762-.2988-.1143-.502-.1143-.1611,0-.3213.0303-.4795.0918-.1592.0615-.2959.1514-.4102.2695-.1143.1191-.1865.2656-.2158.4385-.0254.1445-.0039.2627.0635.3564.0674.0928.1592.168.2734.2256.1143.0566.2344.1035.3613.1396.1279.0352.2422.0645.3438.085.3721.0977.7363.2227,1.0918.375.3564.1523.6465.3652.8701.6387.2246.2725.3281.6357.3115,1.0889-.0127.3857-.1143.7148-.3047.9883-.1904.2725-.4355.4951-.7334.667-.2988.1709-.6211.2959-.9658.374s-.6826.1152-1.0127.1113c-.4619-.0088-.8945-.1016-1.2988-.2793s-.7314-.4375-.9814-.7783-.377-.7588-.3809-1.2539l1.6768.0059c.0039.2207.0479.4062.1328.5586.085.1533.207.2686.3652.3467.1592.0781.3486.1172.5684.1172.1738.0049.3467-.0186.5176-.0693.1719-.0508.3213-.1348.4482-.251s.207-.2705.2412-.4609Z" fill="#fff"/><rect x="160.2727" y="89.416" width="112.3513" height="58.2094" rx="9.9006" ry="9.9006" fill="#4a6582"/><path d="M190.6338,119.0878h-1.9883v4.6138h-2.4966v-12.603h4.5015c1.4312,0,2.5352.3315,3.312.9951.7764.6641,1.1646,1.6016,1.1646,2.8135,0,.8599-.1787,1.5767-.5366,2.1509s-.8999,1.0317-1.6265,1.3721l2.6206,5.1504v.1211h-2.6792l-2.2715-4.6138ZM188.6455,116.9843h2.0132c.627,0,1.1123-.1655,1.4561-.4976.3442-.3315.5161-.7891.5161-1.3721,0-.5942-.1621-1.0615-.4868-1.4023-.3242-.3403-.8223-.5103-1.4937-.5103h-2.0049v3.7822Z" fill="#fff"/><path d="M196.4917,118.9321c0-.9292.1719-1.7573.5156-2.4844s.8389-1.2896,1.4854-1.688c.646-.3979,1.3965-.5972,2.2505-.5972,1.2148,0,2.2065.3867,2.9751,1.1602.7681.7734,1.1963,1.8232,1.2852,3.1509l.0166.6401c0,1.437-.3853,2.5898-1.1562,3.4585-.771.8682-1.8057,1.3027-3.1035,1.3027s-2.334-.4331-3.1079-1.2988c-.7739-.8652-1.1606-2.0425-1.1606-3.5312v-.1128ZM198.896,119.1098c0,.8901.1611,1.5708.4829,2.0415.3218.4712.7822.7065,1.3813.7065.582,0,1.0371-.2324,1.3643-.6978s.4912-1.2095.4912-2.2324c0-.8726-.1641-1.5488-.4912-2.0288-.3271-.4795-.7876-.7192-1.3813-.7192-.5879,0-1.0425.2383-1.3643.7153-.3218.4766-.4829,1.2148-.4829,2.2148Z" fill="#fff"/><path d="M206.127,118.9321c0-.9292.1719-1.7573.5156-2.4844s.8389-1.2896,1.4854-1.688c.646-.3979,1.3965-.5972,2.2505-.5972,1.2148,0,2.2065.3867,2.9751,1.1602.7681.7734,1.1963,1.8232,1.2852,3.1509l.0166.6401c0,1.437-.3853,2.5898-1.1562,3.4585-.771.8682-1.8057,1.3027-3.1035,1.3027s-2.334-.4331-3.1079-1.2988c-.7739-.8652-1.1606-2.0425-1.1606-3.5312v-.1128ZM208.5312,119.1098c0,.8901.1611,1.5708.4829,2.0415.3218.4712.7822.7065,1.3813.7065.582,0,1.0371-.2324,1.3643-.6978s.4912-1.2095.4912-2.2324c0-.8726-.1641-1.5488-.4912-2.0288-.3271-.4795-.7876-.7192-1.3813-.7192-.5879,0-1.0425.2383-1.3643.7153-.3218.4766-.4829,1.2148-.4829,2.2148Z" fill="#fff"/><path d="M219.0161,112.0331v2.3027h1.5391v1.835h-1.5391v4.6743c0,.3462.0635.5942.1914.7441.127.1504.3711.2251.7324.2251.2656,0,.502-.02.707-.0605v1.896c-.4717.1499-.957.2251-1.4561.2251-1.6865,0-2.5459-.8857-2.5801-2.6577v-5.0464h-1.3145v-1.835h1.3145v-2.3027h2.4053Z" fill="#fff"/><path d="M235.8062,119.5034c-.0938,1.3564-.5752,2.4238-1.4434,3.2026-.8682.7793-2.0117,1.1689-3.4326,1.1689-1.5527,0-2.7744-.5439-3.665-1.6318-.8896-1.0879-1.335-2.5811-1.335-4.4795v-.7705c0-1.2119.2051-2.2793.6152-3.2026.4111-.9233.9971-1.6318,1.7598-2.125.7627-.4937,1.6494-.7402,2.6592-.7402,1.3975,0,2.5234.3896,3.3779,1.1685.8545.7793,1.3477,1.873,1.4805,3.2808h-2.4961c-.0605-.8135-.2783-1.4033-.6523-1.77-.375-.3667-.9453-.5498-1.71-.5498-.832,0-1.4551.3105-1.8682.9307s-.626,1.5825-.6367,2.8867v.9521c0,1.3618.1982,2.3574.5947,2.9863s1.0225.9434,1.876.9434c.7715,0,1.3467-.1831,1.7266-.5493.3799-.3667.5977-.9336.6533-1.7012h2.4961Z" fill="#fff"/><path d="M244.2856,121.1049h-4.376l-.832,2.5967h-2.6543l4.5098-12.603h2.3125l4.5352,12.603h-2.6543l-.8408-2.5967ZM240.5835,119.0014h3.0283l-1.5225-4.7178-1.5059,4.7178Z" fill="#fff"/><path d="M120.5532,220.8906c-.0942,1.3564-.5757,2.4238-1.4438,3.2021-.8682.7793-2.0122,1.1689-3.4321,1.1689-1.5532,0-2.7749-.5439-3.665-1.6318-.8906-1.0879-1.3354-2.5811-1.3354-4.4795v-.7705c0-1.2119.2051-2.2793.6157-3.2021.4102-.9238.9966-1.6323,1.7598-2.1255.7627-.4937,1.6484-.7402,2.6582-.7402,1.3979,0,2.5239.3896,3.3784,1.1685.854.7793,1.3477,1.873,1.481,3.2812h-2.4961c-.061-.8135-.2788-1.4033-.6533-1.7705-.3745-.3662-.9443-.5498-1.71-.5498-.832,0-1.4546.3105-1.8682.9307-.4131.6201-.625,1.583-.6362,2.8867v.9521c0,1.3623.1982,2.3574.5947,2.9863s1.022.9434,1.8765.9434c.771,0,1.3467-.1826,1.7266-.5488.3799-.3672.5977-.9336.6533-1.7012h2.4961Z" fill="#fff"/><path d="M126.6772,220.4745h-1.9883v4.6143h-2.4966v-12.6035h4.5015c1.4312,0,2.5352.3315,3.312.9951.7764.6641,1.1646,1.6016,1.1646,2.8135,0,.8604-.1787,1.5771-.5366,2.1514s-.8999,1.0312-1.6265,1.3721l2.6206,5.1504v.1211h-2.6792l-2.2715-4.6143ZM124.689,218.371h2.0132c.627,0,1.1123-.165,1.4561-.4971.3442-.332.5161-.7891.5161-1.3721,0-.5947-.1621-1.0615-.4868-1.4023-.3242-.3408-.8223-.5107-1.4937-.5107h-2.0049v3.7822Z" fill="#fff"/><path d="M135.564,223.0029h5.2998v2.0859h-7.7964v-12.6035h2.4966v10.5176Z" fill="#fff"/><path d="M290.0327,222.8173h-4.377l-.832,2.5967h-2.6543l4.5098-12.603h2.3135l4.5352,12.603h-2.6543l-.8408-2.5967ZM286.3306,220.7138h3.0283l-1.5225-4.7178-1.5059,4.7178Z" fill="#fff"/><path d="M304.1694,221.2158c-.0938,1.3564-.5752,2.4238-1.4434,3.2031s-2.0127,1.1689-3.4326,1.1689c-1.5527,0-2.7744-.5439-3.665-1.6318s-1.335-2.5811-1.335-4.4795v-.7705c0-1.2119.2051-2.2793.6152-3.2031.4102-.9229.9971-1.6318,1.7598-2.125.7627-.4937,1.6484-.7402,2.6582-.7402,1.3984,0,2.5244.3896,3.3789,1.1689.8535.7793,1.3477,1.873,1.4805,3.2803h-2.4961c-.0605-.8135-.2783-1.4033-.6533-1.7695-.374-.3672-.9443-.5498-1.71-.5498-.832,0-1.4541.3105-1.8682.9307-.4131.6201-.625,1.582-.6357,2.8867v.9521c0,1.3613.1982,2.3574.5947,2.9863s1.0215.9434,1.876.9434c.7715,0,1.3467-.1836,1.7266-.5498s.5977-.9336.6533-1.7012h2.4961Z" fill="#fff"/><path d="M309.0708,212.811l3.1113,9.1411,3.0957-9.1411h3.2783v12.603h-2.5049v-3.4453l.25-5.9463-3.2695,9.3916h-1.7148l-3.2617-9.3828.25,5.9375v3.4453h-2.4961v-12.603h3.2617Z" fill="#fff"/><path d="M328.0239,219.9521h-4.792v3.376h5.625v2.0859h-8.1211v-12.603h8.1035v2.104h-5.6074v3.0029h4.792v2.0342Z" fill="#fff"/></g><rect x="167.152" y="291.8147" width="97.3333" height="71.3333" rx="13.3333" ry="13.3333" fill="#4a6582"/><path d="M194.4312,323.9677h-2.5347v-12.7969h2.5347v12.7969Z" fill="#fff"/><path d="M201.5703,321.3398c0-.3105-.1479-.5547-.4434-.7334-.2959-.1787-.7705-.3389-1.4238-.4795-2.1743-.4746-3.2612-1.4355-3.2612-2.8828,0-.8438.3364-1.5479,1.0098-2.1133.6729-.5654,1.5532-.8486,2.6401-.8486,1.1602,0,2.0879.2842,2.7837.8525s1.0435,1.3066,1.0435,2.2148h-2.4414c0-.3633-.1128-.6631-.3379-.9004-.2256-.2373-.5776-.3564-1.0562-.3564-.4111,0-.7295.0967-.9551.29-.2251.1934-.3379.4395-.3379.7383,0,.2812.1284.5088.3848.6816.2559.1729.6885.3223,1.2969.4482.6079.126,1.1206.2676,1.5376.4258,1.2896.4922,1.9346,1.3447,1.9346,2.5576,0,.8672-.3579,1.5693-1.0728,2.1055-.7153.5361-1.6392.8037-2.7715.8037-.7661,0-1.4458-.1416-2.04-.4258s-1.0605-.6738-1.3984-1.1689-.5068-1.0303-.5068-1.6045h2.3149c.0225.4512.1831.7969.4814,1.0371s.6982.3604,1.1997.3604c.4673,0,.8208-.0918,1.0605-.2764.2393-.1846.3589-.4268.3589-.7256Z" fill="#fff"/><path d="M210.4663,321.3398c0-.3105-.1479-.5547-.4434-.7334-.2959-.1787-.7705-.3389-1.4238-.4795-2.1743-.4746-3.2612-1.4355-3.2612-2.8828,0-.8438.3364-1.5479,1.0098-2.1133.6729-.5654,1.5532-.8486,2.6401-.8486,1.1602,0,2.0879.2842,2.7837.8525s1.0435,1.3066,1.0435,2.2148h-2.4414c0-.3633-.1128-.6631-.3379-.9004-.2256-.2373-.5776-.3564-1.0562-.3564-.4111,0-.7295.0967-.9551.29-.2251.1934-.3379.4395-.3379.7383,0,.2812.1284.5088.3848.6816.2559.1729.6885.3223,1.2969.4482.6079.126,1.1206.2676,1.5376.4258,1.2896.4922,1.9346,1.3447,1.9346,2.5576,0,.8672-.3579,1.5693-1.0728,2.1055-.7153.5361-1.6392.8037-2.7715.8037-.7661,0-1.4458-.1416-2.04-.4258s-1.0605-.6738-1.3984-1.1689-.5068-1.0303-.5068-1.6045h2.3149c.0225.4512.1831.7969.4814,1.0371s.6982.3604,1.1997.3604c.4673,0,.8208-.0918,1.0605-.2764.2393-.1846.3589-.4268.3589-.7256Z" fill="#fff"/><path d="M219.8862,323.0009c-.6025.7617-1.436,1.1426-2.5005,1.1426-.98,0-1.7275-.293-2.2432-.8789-.5151-.5859-.7788-1.4443-.79-2.5752v-6.2314h2.4419v6.1514c0,.9912.4336,1.4863,1.3013,1.4863.8276,0,1.3965-.2988,1.7065-.8975v-6.7402h2.4492v9.5098h-2.2979l-.0674-.9668Z" fill="#fff"/><path d="M228.3013,324.1435c-1.3408,0-2.4316-.4277-3.2734-1.2832-.8428-.8555-1.2637-1.9951-1.2637-3.4189v-.2461c0-.9551.1777-1.8086.5322-2.5615.3555-.7529.8574-1.333,1.5078-1.7402.6514-.4072,1.3926-.6113,2.2266-.6113,1.25,0,2.2344.4102,2.9531,1.2305.7178.8203,1.0771,1.9834,1.0771,3.4893v1.0371h-5.8213c.0791.6211.3164,1.1191.7139,1.4941s.8994.5625,1.5078.5625c.9404,0,1.6758-.3545,2.2051-1.0635l1.2002,1.3975c-.3662.5391-.8623.96-1.4873,1.2617s-1.3174.4521-2.0781.4521ZM228.022,316.33c-.4844,0-.877.1709-1.1777.5127-.3018.3408-.4951.8291-.5791,1.4648h3.3965v-.2031c-.0117-.5645-.1582-1.002-.4395-1.3105-.2822-.3096-.6816-.4639-1.2002-.4639Z" fill="#fff"/><path d="M233.0659,319.1425c0-1.4824.3203-2.6631.959-3.542.6396-.8789,1.5137-1.3184,2.623-1.3184.8906,0,1.625.3457,2.2051,1.0371v-4.8516h2.4502v13.5h-2.2051l-.1182-1.0107c-.6084.791-1.3906,1.1865-2.3486,1.1865-1.0762,0-1.9385-.4404-2.5898-1.3223-.6504-.8818-.9756-2.1084-.9756-3.6787ZM235.5073,319.332c0,.8916.1494,1.5752.4482,2.0508s.7324.7129,1.3008.7129c.7549,0,1.2871-.3311,1.5967-.9941v-3.7588c-.3037-.6631-.8301-.9951-1.5791-.9951-1.1777,0-1.7666.9951-1.7666,2.9844Z" fill="#fff"/><path d="M181.6909,341.3056c-.0957,1.377-.5845,2.4609-1.4658,3.252s-2.043,1.1865-3.4849,1.1865c-1.5771,0-2.8179-.5527-3.7217-1.6572s-1.356-2.6201-1.356-4.5479v-.7822c0-1.2305.2085-2.3145.625-3.252.417-.9375,1.0127-1.6572,1.7871-2.1582s1.6743-.751,2.6992-.751c1.4194,0,2.563.3955,3.4302,1.1865s1.3687,1.9014,1.5039,3.3311h-2.5347c-.062-.8262-.2832-1.4258-.6631-1.7979-.3804-.3721-.959-.5576-1.7363-.5576-.8447,0-1.4771.3145-1.8965.9443-.4199.6299-.6353,1.6074-.6465,2.9316v.9668c0,1.3828.2012,2.3936.604,3.0322s1.0376.958,1.9053.958c.7827,0,1.3672-.1865,1.7529-.5586s.6069-.9473.6631-1.7266h2.5347Z" fill="#fff"/><path d="M187.4023,345.7441c-1.3403,0-2.4316-.4277-3.2734-1.2832-.8423-.8555-1.2632-1.9951-1.2632-3.4189v-.2461c0-.9551.1772-1.8096.5322-2.5625s.8574-1.333,1.5078-1.7402c.6509-.4072,1.3926-.6104,2.2266-.6104,1.25,0,2.2344.4102,2.9526,1.2305s1.0771,1.9834,1.0771,3.4893v1.0371h-5.8213c.0791.6211.3169,1.1191.7144,1.4941.397.375.8994.5625,1.5078.5625.9404,0,1.6758-.3545,2.2051-1.0635l1.1997,1.3975c-.3662.5391-.8618.959-1.4868,1.2607-.6255.3018-1.3179.4531-2.0786.4531ZM187.1235,337.9306c-.4844,0-.877.1709-1.1782.5117-.3018.3418-.4946.8301-.5791,1.4658h3.3965v-.2031c-.0112-.5654-.1577-1.002-.4395-1.3115-.2817-.3086-.6816-.4629-1.1997-.4629Z" fill="#fff"/><path d="M197.6846,338.4404c-.3325-.0469-.6255-.0703-.8789-.0703-.9238,0-1.5293.3252-1.8164.9756v6.2227h-2.4414v-9.5098h2.3062l.0679,1.1338c.4897-.873,1.1685-1.3096,2.0361-1.3096.27,0,.5234.0381.7603.1143l-.0337,2.4434Z" fill="#fff"/><path d="M202.2041,333.7206v2.3379h1.563v1.8633h-1.563v4.7461c0,.3516.0649.6035.1943.7559s.3774.2285.7437.2285c.2705,0,.5098-.0205.7183-.0615v1.9248c-.479.1523-.9717.2285-1.4785.2285-1.7124,0-2.5854-.8994-2.6191-2.6982v-5.124h-1.335v-1.8633h1.335v-2.3379h2.4414Z" fill="#fff"/><path d="M205.1104,333.5976c0-.3809.1226-.6943.3677-.9404.2446-.2461.5786-.3691,1.001-.3691.417,0,.749.123.9971.3691.2476.2461.3716.5596.3716.9404,0,.3867-.1255.7031-.376.9492s-.5815.3691-.9927.3691-.7422-.123-.9927-.3691-.376-.5625-.376-.9492ZM207.7041,345.5683h-2.4502v-9.5098h2.4502v9.5098Z" fill="#fff"/><path d="M210.3828,345.5683v-7.6465h-1.3604v-1.8633h1.3604v-.8086c0-1.0664.2939-1.8945.8828-2.4834.5884-.5889,1.4121-.8828,2.4712-.8828.3379,0,.752.0586,1.2417.1758l-.0254,1.9688c-.2026-.0527-.4507-.0791-.7432-.0791-.9185,0-1.3774.4482-1.3774,1.3447v.7646h1.8164v1.8633h-1.8164v7.6465h-2.4497Z" fill="#fff"/><path d="M215.8994,333.5976c0-.3809.1226-.6943.3677-.9404.2446-.2461.5786-.3691,1.001-.3691.417,0,.749.123.9971.3691.2476.2461.3716.5596.3716.9404,0,.3867-.1255.7031-.376.9492s-.5815.3691-.9927.3691-.7422-.123-.9927-.3691-.376-.5625-.376-.9492ZM218.4932,345.5683h-2.4502v-9.5098h2.4502v9.5098Z" fill="#fff"/><path d="M224.3052,343.6962c.4512,0,.8164-.1289,1.0986-.3867.2812-.2578.4277-.6006.4395-1.0283h2.2891c-.0059.6445-.1748,1.2344-.5068,1.7705s-.7871.9521-1.3643,1.248-1.2158.4443-1.9141.4443c-1.3066,0-2.3369-.4326-3.0918-1.2969s-1.1318-2.0576-1.1318-3.5811v-.167c0-1.4648.374-2.6338,1.123-3.5068s1.7773-1.3096,3.084-1.3096c1.1436,0,2.0605.3379,2.75,1.0146.6904.6768,1.041,1.5781,1.0518,2.7031h-2.2891c-.0117-.4951-.1582-.8975-.4395-1.2061-.2822-.3096-.6533-.4639-1.1152-.4639-.5693,0-.999.2158-1.2881.6465-.291.4316-.4355,1.1318-.4355,2.0996v.2637c0,.9805.1436,1.6846.4307,2.1133s.7236.6426,1.3096.6426Z" fill="#fff"/><path d="M234.8237,345.5683c-.1133-.2285-.1943-.5127-.2451-.8525-.5918.6855-1.3604,1.0283-2.3066,1.0283-.8955,0-1.6377-.2695-2.2256-.8086-.5889-.5391-.8828-1.2188-.8828-2.0391,0-1.0078.3584-1.7812,1.0771-2.3203.7178-.5391,1.7559-.8115,3.1133-.8174h1.123v-.5449c0-.4395-.1084-.791-.3252-1.0547s-.5586-.3955-1.0264-.3955c-.4111,0-.7334.1025-.9678.3076-.2334.2051-.3506.4863-.3506.8438h-2.4414c0-.5508.1631-1.0605.4902-1.5293.3262-.4688.7881-.8369,1.3857-1.1035.5967-.2666,1.2666-.3994,2.0107-.3994,1.126,0,2.0205.2939,2.6826.8828.6611.5889.9922,1.417.9922,2.4834v4.1221c.0059.9023.127,1.585.3633,2.0479v.1494h-2.4668ZM232.8042,343.8017c.3604,0,.6934-.084.9971-.251.3047-.167.5293-.3906.6758-.6719v-1.6348h-.9121c-1.2227,0-1.873.4395-1.9521,1.3184l-.0078.1494c0,.3164.1064.5771.3213.7822.2139.2051.5068.3076.8779.3076Z" fill="#fff"/><path d="M241.7261,333.7206v2.3379h1.5635v1.8633h-1.5635v4.7461c0,.3516.0654.6035.1943.7559.1299.1523.3779.2285.7441.2285.2705,0,.5098-.0205.7178-.0615v1.9248c-.4785.1523-.9717.2285-1.4785.2285-1.7119,0-2.585-.8994-2.6191-2.6982v-5.124h-1.335v-1.8633h1.335v-2.3379h2.4414Z" fill="#fff"/><path d="M248.8579,345.7441c-1.3418,0-2.4326-.4277-3.2744-1.2832-.8428-.8555-1.2637-1.9951-1.2637-3.4189v-.2461c0-.9551.1777-1.8096.5322-2.5625.3555-.7529.8574-1.333,1.5078-1.7402.6514-.4072,1.3926-.6104,2.2266-.6104,1.25,0,2.2344.4102,2.9531,1.2305s1.0781,1.9834,1.0781,3.4893v1.0371h-5.8223c.0791.6211.3164,1.1191.7148,1.4941.3965.375.8984.5625,1.5078.5625.9395,0,1.6758-.3545,2.2051-1.0635l1.1992,1.3975c-.3652.5391-.8613.959-1.4863,1.2607s-1.3184.4531-2.0781.4531ZM248.5786,337.9306c-.4844,0-.877.1709-1.1787.5117-.3018.3418-.4951.8301-.5791,1.4658h3.3965v-.2031c-.0117-.5654-.1582-1.002-.4395-1.3115-.2812-.3086-.6816-.4629-1.1992-.4629Z" fill="#fff"/><path d="M258.9536,342.9404c0-.3105-.1475-.5557-.4434-.7344s-.7705-.3379-1.4238-.4785c-2.1738-.4746-3.2607-1.4355-3.2607-2.8828,0-.8438.3359-1.5488,1.0088-2.1143.6738-.5654,1.5537-.8477,2.6406-.8477,1.1602,0,2.0879.2842,2.7842.8525.6953.5684,1.043,1.3066,1.043,2.2148h-2.4414c0-.3633-.1133-.6641-.3379-.9014-.2256-.2373-.5781-.3555-1.0566-.3555-.4111,0-.7295.0967-.9541.29-.2256.1934-.3379.4395-.3379.7383,0,.2812.1279.5078.3838.6807.2568.1729.6885.3223,1.2969.4482s1.1211.2686,1.5381.4268c1.29.4922,1.9346,1.3447,1.9346,2.5576,0,.8672-.3574,1.5684-1.0732,2.1045-.7148.5361-1.6387.8047-2.7705.8047-.7666,0-1.4463-.1426-2.041-.4268-.5938-.2842-1.0596-.6738-1.3975-1.1689s-.5078-1.0293-.5078-1.6035h2.3154c.0225.4512.1826.7969.4814,1.0371s.6982.3604,1.2002.3604c.4668,0,.8203-.0928,1.0596-.2773s.3594-.4258.3594-.7246Z" fill="#fff"/><path d="M162.3223,501.6347h-7.3501l-3.6328-10.6934h-15.8833l-3.4922,10.6934h-7.3223l15.123-42.0117h7.5474l15.0103,42.0117ZM149.5649,485.2578l-5.604-16.7578c-.1689-.5469-.3477-1.4258-.5352-2.6367h-.1128c-.1689,1.1133-.3569,1.9922-.563,2.6367l-5.5479,16.7578h12.3628Z"/><path d="M167.8706,501.6347v-42.0117h11.6587c14.8882,0,22.3325,6.8262,22.3325,20.4785,0,6.4844-2.0654,11.6943-6.1958,15.6299s-9.6689,5.9033-16.6152,5.9033h-11.1802ZM174.5449,465.541v30.2051h5.3506c4.7124,0,8.3779-1.3477,10.9971-4.043s3.9287-6.5039,3.9287-11.4258c0-9.8242-4.8911-14.7363-14.6724-14.7363h-5.604Z"/><path d="M223.687,487.748h-15.3765v-5.0098h15.3765v5.0098Z"/><path d="M239.0913,486.4003v15.2344h-6.6738v-42.0117h12.25c4.6367,0,8.2324,1.123,10.7861,3.3691,2.5527,2.2461,3.8301,5.4102,3.8301,9.4922s-1.334,7.4219-3.999,10.0195c-2.667,2.5977-6.2715,3.8965-10.8145,3.8965h-5.3789ZM239.0913,465.3652v15.3516h4.3369c2.873,0,5.0596-.6934,6.5615-2.0801s2.2529-3.3398,2.2529-5.8594c0-4.9414-2.7598-7.4121-8.2793-7.4121h-4.8721Z"/><path d="M296.6821,501.6347h-8.7295l-14.0527-19.2188c-.5264-.7227-.8457-1.2109-.958-1.4648h-.1123v20.6836h-6.7031v-42.0117h6.7031v19.7461h.1123c.2256-.4297.5439-.9082.958-1.4355l13.5449-18.3105h8.0264l-15.8545,20.1562,17.0654,21.8555Z"/><path d="M308.229,501.6347h-6.9004v-42.0117h6.9004v42.0117Z"/><path d="M16.5928,535.4697H2.9907v-25.207h13.0615v3.5508H7.0122v7.1367h8.3306v3.5332H7.0122v7.4531h9.5806v3.5332Z"/><path d="M35.8726,535.4697h-3.9199v-10.1426c0-3.3633-1.1436-5.0449-3.4302-5.0449-1.1938,0-2.1797.4658-2.957,1.3975s-1.166,2.1064-1.166,3.5244v10.2656h-3.937v-18h3.937v2.9883h.0679c1.2954-2.2734,3.165-3.4102,5.6099-3.4102,1.8809,0,3.3174.6357,4.3086,1.9072s1.4868,3.1084,1.4868,5.5107v11.0039Z"/><path d="M49.7788,535.2763c-.7661.3984-1.7739.5977-3.0244.5977-3.3569,0-5.0352-1.6758-5.0352-5.0273v-10.1777h-2.8896v-3.1992h2.8896v-4.166l3.9199-1.1602v5.3262h4.1396v3.1992h-4.1396v9c0,1.0664.186,1.8281.5576,2.2852s.9912.6855,1.8589.6855c.6641,0,1.2388-.1992,1.7231-.5977v3.2344Z"/><path d="M67.6055,527.5771h-11.7939c.0449,1.6641.5376,2.9473,1.4785,3.8496.9404.9023,2.2329,1.3535,3.8779,1.3535,1.8472,0,3.5425-.5742,5.0859-1.7227v3.2871c-1.5771,1.0312-3.6611,1.5469-6.252,1.5469-2.5459,0-4.543-.8174-5.9902-2.4521s-2.1714-3.9346-2.1714-6.8994c0-2.8008.7969-5.083,2.3911-6.8467,1.5938-1.7637,3.5737-2.6455,5.9395-2.6455s4.1958.791,5.4917,2.373c1.2949,1.582,1.9429,3.7793,1.9429,6.5918v1.5645ZM63.8208,524.6943c-.0117-1.4648-.3438-2.6045-.9971-3.4189s-1.5547-1.2217-2.7036-1.2217c-1.1265,0-2.0811.4277-2.8643,1.2832-.7827.8555-1.2646,1.9746-1.4443,3.3574h8.0093Z"/><path d="M81.3765,521.3544c-.4731-.3867-1.1548-.5801-2.0444-.5801-1.1606,0-2.1294.5449-2.9062,1.6348-.7773,1.0898-1.166,2.5723-1.166,4.4473v8.6133h-3.9204v-18h3.9204v3.709h.0674c.3828-1.2656.9717-2.2529,1.7661-2.9619.7939-.709,1.6812-1.0635,2.6611-1.0635.7095,0,1.2505.1113,1.6221.334v3.8672Z"/><path d="M88.1353,532.8154h-.0674v10.9336h-3.9204v-26.2793h3.9204v3.1641h.0674c1.3403-2.3906,3.3008-3.5859,5.8804-3.5859,2.1968,0,3.9087.8027,5.1367,2.4082,1.2275,1.6055,1.8418,3.7617,1.8418,6.4688,0,3-.6929,5.4023-2.0786,7.207-1.3853,1.8047-3.2778,2.707-5.6772,2.707-2.208,0-3.9092-1.0078-5.103-3.0234ZM88.0342,525.7138v2.2324c0,1.3125.4023,2.4258,1.208,3.3398.8052.9141,1.8276,1.3711,3.0669,1.3711,1.4531,0,2.5938-.5889,3.4214-1.7666.8281-1.1777,1.2422-2.8213,1.2422-4.9307,0-1.7695-.3862-3.1553-1.1577-4.1572s-1.8164-1.5029-3.1343-1.5029c-1.397,0-2.5205.5156-3.3711,1.5469s-1.2754,2.3203-1.2754,3.8672Z"/><path d="M115.0356,521.3544c-.4731-.3867-1.1548-.5801-2.0444-.5801-1.1606,0-2.1294.5449-2.9062,1.6348-.7773,1.0898-1.166,2.5723-1.166,4.4473v8.6133h-3.9204v-18h3.9204v3.709h.0674c.3828-1.2656.9717-2.2529,1.7661-2.9619.7939-.709,1.6812-1.0635,2.6611-1.0635.7095,0,1.2505.1113,1.6221.334v3.8672Z"/><path d="M119.7837,513.6904c-.6421,0-1.1909-.2168-1.6475-.6504-.4561-.4336-.6841-.9844-.6841-1.6523s.228-1.2246.6841-1.6699c.4565-.4453,1.0054-.668,1.6475-.668.6646,0,1.228.2227,1.6899.668.4614.4453.6929,1.002.6929,1.6699,0,.6328-.2314,1.1748-.6929,1.626-.4619.4512-1.0254.6768-1.6899.6768ZM121.7271,535.4697h-3.9204v-18h3.9204v18Z"/><path d="M125.7656,534.9072v-3.7793c1.4639,1.1602,3.0806,1.7402,4.8491,1.7402,2.3657,0,3.5488-.7266,3.5488-2.1797,0-.4102-.1016-.7588-.3042-1.0459-.2031-.2871-.4761-.542-.8198-.7646s-.749-.4219-1.2163-.5977c-.4678-.1758-.9888-.375-1.563-.5977-.71-.293-1.3491-.6035-1.918-.9316s-1.042-.7002-1.4194-1.1162-.6616-.8877-.853-1.415c-.1919-.5273-.2876-1.1426-.2876-1.8457,0-.8672.1973-1.6318.5913-2.2939.3945-.6621.9238-1.2188,1.5884-1.6699s1.4194-.791,2.2642-1.0195c.8452-.2285,1.7178-.3428,2.6191-.3428,1.5996,0,3.0303.252,4.292.7559v3.5684c-1.2168-.8672-2.6133-1.3008-4.1904-1.3008-.4961,0-.9438.0527-1.3433.1582-.3999.1055-.7407.252-1.0225.4395s-.5015.4131-.6587.6768c-.1582.2637-.2368.5537-.2368.8701,0,.3867.0786.7148.2368.9844.1572.2695.3911.5068.7012.7119.3096.2051.6812.3926,1.1152.5625.4331.1699.9316.3545,1.4951.5537.7437.3164,1.4111.6387,2.0024.9668s1.0952.7002,1.5122,1.1162c.4165.416.7378.8965.9634,1.4414.2251.5449.3379,1.1924.3379,1.9424,0,.9141-.2031,1.7109-.6084,2.3906-.4058.6797-.9463,1.2422-1.6221,1.6875s-1.4561.7764-2.3403.9932-1.8164.3252-2.7964.3252c-1.8926,0-3.5317-.3281-4.917-.9844Z"/><path d="M156.4165,527.5771h-11.7939c.0449,1.6641.5376,2.9473,1.4785,3.8496.9404.9023,2.2329,1.3535,3.8779,1.3535,1.8472,0,3.5425-.5742,5.0859-1.7227v3.2871c-1.5771,1.0312-3.6611,1.5469-6.252,1.5469-2.5459,0-4.543-.8174-5.9902-2.4521s-2.1714-3.9346-2.1714-6.8994c0-2.8008.7969-5.083,2.3911-6.8467,1.5938-1.7637,3.5737-2.6455,5.9395-2.6455s4.1958.791,5.4917,2.373c1.2949,1.582,1.9429,3.7793,1.9429,6.5918v1.5645ZM152.6318,524.6943c-.0117-1.4648-.3438-2.6045-.9971-3.4189s-1.5547-1.2217-2.7036-1.2217c-1.1265,0-2.0811.4277-2.8643,1.2832-.7827.8555-1.2646,1.9746-1.4443,3.3574h8.0093Z"/><path d="M174.1084,526.329v9.1406h-4.0049v-25.207h7.3501c2.7822,0,4.9399.6738,6.4717,2.0215s2.2983,3.2461,2.2983,5.6953-.8003,4.4531-2.3994,6.0117c-1.5996,1.5586-3.7627,2.3379-6.4888,2.3379h-3.2271ZM174.1084,513.7079v9.2109h2.6021c1.7236,0,3.0356-.416,3.937-1.248.9009-.832,1.3516-2.0039,1.3516-3.5156,0-2.9648-1.6558-4.4473-4.9678-4.4473h-2.9229Z"/><path d="M208.6626,535.4697h-5.2383l-8.4316-11.5312c-.3154-.4336-.5068-.7266-.5742-.8789h-.0679v12.4102h-4.0215v-25.207h4.0215v11.8477h.0679c.1348-.2578.3262-.5449.5742-.8613l8.1274-10.9863h4.8159l-9.5132,12.0938,10.2397,13.1133Z"/><path d="M215.5903,535.4697h-4.1396v-25.207h4.1396v25.207Z"/><path d="M257.0903,535.4697h-3.9883v-16.3125c0-1.3359.0801-2.9707.2363-4.9043h-.0664c-.248,1.1016-.4688,1.8926-.6602,2.373l-7.2314,18.8438h-2.7705l-7.249-18.7031c-.2031-.5508-.417-1.3887-.6426-2.5137h-.0674c.0898,1.0078.1348,2.6543.1348,4.9395v16.2773h-3.7168v-25.207h5.6602l6.3701,16.7871c.4844,1.2891.7998,2.25.9463,2.8828h.085c.416-1.3242.7539-2.3086,1.0137-2.9531l6.4893-16.7168h5.457v25.207Z"/><path d="M275.897,535.4697h-3.8027v-2.8125h-.0674c-1.1943,2.1562-2.9453,3.2344-5.2549,3.2344-1.7012,0-3.0332-.4805-3.9961-1.4414s-1.4443-2.2324-1.4443-3.8145c0-3.3984,1.8809-5.3789,5.6436-5.9414l5.1367-.7559c0-2.5664-1.1719-3.8496-3.5146-3.8496-2.0615,0-3.9199.7383-5.5762,2.2148v-3.5684c1.8252-1.125,3.9316-1.6875,6.3193-1.6875,4.3711,0,6.5566,2.2383,6.5566,6.7148v11.707ZM272.1118,526.6279l-3.6328.5273c-1.127.1523-1.9746.4365-2.543.8525-.5693.416-.8535,1.1455-.8535,2.1885,0,.7617.2617,1.3857.7852,1.8721.5244.4863,1.2256.7295,2.1045.7295,1.1934,0,2.1816-.4365,2.9648-1.3096s1.1748-1.9717,1.1748-3.2959v-1.5645Z"/><path d="M296.0894,535.4697h-3.9199v-10.1426c0-3.3633-1.1436-5.0449-3.4307-5.0449-1.1943,0-2.1797.4658-2.957,1.3975s-1.166,2.1064-1.166,3.5244v10.2656h-3.9365v-18h3.9365v2.9883h.0674c1.2959-2.2734,3.166-3.4102,5.6104-3.4102,1.8809,0,3.3174.6357,4.3086,1.9072s1.4873,3.1084,1.4873,5.5107v11.0039Z"/><path d="M314.1519,535.4697h-3.8027v-2.8125h-.0674c-1.1943,2.1562-2.9453,3.2344-5.2549,3.2344-1.7012,0-3.0332-.4805-3.9961-1.4414s-1.4443-2.2324-1.4443-3.8145c0-3.3984,1.8809-5.3789,5.6436-5.9414l5.1367-.7559c0-2.5664-1.1719-3.8496-3.5146-3.8496-2.0615,0-3.9199.7383-5.5762,2.2148v-3.5684c1.8252-1.125,3.9316-1.6875,6.3193-1.6875,4.3711,0,6.5566,2.2383,6.5566,6.7148v11.707ZM310.3667,526.6279l-3.6328.5273c-1.127.1523-1.9746.4365-2.543.8525-.5693.416-.8535,1.1455-.8535,2.1885,0,.7617.2617,1.3857.7852,1.8721.5244.4863,1.2256.7295,2.1045.7295,1.1934,0,2.1816-.4365,2.9648-1.3096s1.1748-1.9717,1.1748-3.2959v-1.5645Z"/><path d="M334.6821,534.0283c0,6.6094-3.1934,9.9141-9.5811,9.9141-2.2529,0-4.2188-.3926-5.8965-1.1777v-3.7266c1.8916,1.125,3.6885,1.6875,5.3896,1.6875,4.1113,0,6.168-2.1035,6.168-6.3105v-1.9688h-.0684c-1.2949,2.2969-3.2441,3.4453-5.8457,3.4453-2.1074,0-3.8047-.7998-5.0947-2.3994s-1.9346-3.7471-1.9346-6.4424c0-3.0586.6924-5.4902,2.0781-7.2949s3.2891-2.707,5.7109-2.707c2.2871,0,3.9824.9727,5.0859,2.918h.0684v-2.4961h3.9199v16.5586ZM330.7954,527.2255v-2.3379c0-1.2656-.4023-2.3467-1.208-3.2432s-1.8105-1.3447-3.0156-1.3447c-1.4873,0-2.6504.5713-3.4893,1.7139-.8398,1.1426-1.2598,2.7393-1.2598,4.79,0,1.7695.4033,3.1846,1.209,4.2451.8047,1.0605,1.8721,1.5908,3.2012,1.5908,1.3525,0,2.4502-.5068,3.2949-1.5205.8457-1.0137,1.2676-2.3115,1.2676-3.8936Z"/><path d="M354.4341,527.5771h-11.7939c.0449,1.6641.5381,2.9473,1.4785,3.8496s2.2324,1.3535,3.8779,1.3535c1.8467,0,3.542-.5742,5.0859-1.7227v3.2871c-1.5771,1.0312-3.6611,1.5469-6.252,1.5469-2.5459,0-4.543-.8174-5.9902-2.4521s-2.1709-3.9346-2.1709-6.8994c0-2.8008.7969-5.083,2.3906-6.8467s3.5742-2.6455,5.9395-2.6455,4.1963.791,5.4912,2.373c1.2959,1.582,1.9434,3.7793,1.9434,6.5918v1.5645ZM350.6489,524.6943c-.0107-1.4648-.3438-2.6045-.9971-3.4189s-1.5537-1.2217-2.7031-1.2217c-1.127,0-2.0811.4277-2.8643,1.2832s-1.2646,1.9746-1.4443,3.3574h8.0088Z"/><path d="M384.0386,535.4697h-3.9199v-9.8086c0-1.8867-.2568-3.252-.7686-4.0957-.5127-.8438-1.3779-1.2656-2.5938-1.2656-1.0254,0-1.8955.5332-2.6113,1.5996-.7148,1.0664-1.0723,2.3438-1.0723,3.832v9.7383h-3.9375v-10.1426c0-3.3516-1.1377-5.0273-3.4131-5.0273-1.0586,0-1.9287.5039-2.6104,1.5117s-1.0225,2.3145-1.0225,3.9199v9.7383h-3.9199v-18h3.9199v2.8477h.0674c1.251-2.1797,3.0693-3.2695,5.458-3.2695,1.1934,0,2.2383.3428,3.1348,1.0283.8955.6855,1.5059,1.585,1.833,2.6982,1.2842-2.4844,3.1992-3.7266,5.7451-3.7266,3.8076,0,5.7109,2.4434,5.7109,7.3301v11.0918Z"/><path d="M403.4702,527.5771h-11.7939c.0449,1.6641.5381,2.9473,1.4785,3.8496s2.2324,1.3535,3.8779,1.3535c1.8467,0,3.542-.5742,5.0859-1.7227v3.2871c-1.5771,1.0312-3.6611,1.5469-6.252,1.5469-2.5459,0-4.543-.8174-5.9902-2.4521s-2.1709-3.9346-2.1709-6.8994c0-2.8008.7969-5.083,2.3906-6.8467s3.5742-2.6455,5.9395-2.6455,4.1963.791,5.4912,2.373c1.2959,1.582,1.9434,3.7793,1.9434,6.5918v1.5645ZM399.6851,524.6943c-.0107-1.4648-.3438-2.6045-.9971-3.4189s-1.5537-1.2217-2.7031-1.2217c-1.127,0-2.0811.4277-2.8643,1.2832s-1.2646,1.9746-1.4443,3.3574h8.0088Z"/><path d="M422.6147,535.4697h-3.9199v-10.1426c0-3.3633-1.1436-5.0449-3.4307-5.0449-1.1943,0-2.1797.4658-2.957,1.3975s-1.166,2.1064-1.166,3.5244v10.2656h-3.9365v-18h3.9365v2.9883h.0674c1.2959-2.2734,3.166-3.4102,5.6104-3.4102,1.8809,0,3.3174.6357,4.3086,1.9072s1.4873,3.1084,1.4873,5.5107v11.0039Z"/><path d="M436.521,535.2763c-.7656.3984-1.7744.5977-3.0244.5977-3.3574,0-5.0352-1.6758-5.0352-5.0273v-10.1777h-2.8896v-3.1992h2.8896v-4.166l3.9199-1.1602v5.3262h4.1396v3.1992h-4.1396v9c0,1.0664.1855,1.8281.5576,2.2852s.9912.6855,1.8584.6855c.665,0,1.2393-.1992,1.7236-.5977v3.2344Z"/></svg>